<?xml version="1.0" encoding="UTF-8" standalone="no"?>
<!DOCTYPE svg PUBLIC "-//W3C//DTD SVG 1.1//EN" "http://www.w3.org/Graphics/SVG/1.1/DTD/svg11.dtd">
<svg width="100%" height="100%" viewBox="0 0 1080 900" version="1.1" xmlns="http://www.w3.org/2000/svg" xmlns:xlink="http://www.w3.org/1999/xlink" xml:space="preserve" xmlns:serif="http://www.serif.com/" style="fill-rule:evenodd;clip-rule:evenodd;stroke-miterlimit:1;">
    <g id="Artboard1" transform="matrix(0.75,0,0,1,0,0)">
        <rect x="0" y="0" width="1440" height="900" style="fill:none;"/>
        <g transform="matrix(2.53491,0,0,2.53491,-658.857,-614.662)">
            <g transform="matrix(2.45614,0,0,1.88315,597.018,328.532)">
                <path d="M50.3,87.7C49.2,87.7 48.1,87.4 47.2,86.7L37.1,79.7C36.3,79.2 35.3,79.1 34.5,79.6L25.7,84.8C24,85.8 22,85.8 20.2,84.8C18.5,83.8 17.5,82.1 17.5,80.1L17.5,43.9C17.5,26 32.1,11.4 50,11.4C67.9,11.4 82.5,26 82.5,43.9L82.5,80.3C82.5,82.3 81.5,84 79.8,85C78.1,86 76.1,86 74.4,85L65.5,79.8C64.7,79.3 63.6,79.4 62.8,79.9L53.5,86.7C52.5,87.4 51.4,87.7 50.3,87.7ZM35.7,76.4C36.8,76.4 37.9,76.7 38.8,77.4L48.9,84.4C49.8,85 50.9,85 51.7,84.4L61,77.6C62.7,76.3 65.1,76.2 67,77.3L75.9,82.5C76.7,82.9 77.6,82.9 78.3,82.5C79.1,82.1 79.5,81.3 79.5,80.4L79.5,43.9C79.5,27.6 66.3,14.4 50,14.4C33.7,14.4 20.5,27.6 20.5,43.9L20.5,80.3C20.5,81.2 21,82 21.7,82.4C22.5,82.8 23.4,82.8 24.1,82.4L32.9,77.2C33.8,76.6 34.7,76.4 35.7,76.4ZM35.9,54.1C31,54.1 27.1,50.1 27.1,45.3C27.1,40.4 31.1,36.5 35.9,36.5C40.7,36.5 44.7,40.5 44.7,45.3C44.7,50.1 40.7,54.1 35.9,54.1ZM35.9,39.5C32.7,39.5 30.1,42.1 30.1,45.3C30.1,48.5 32.7,51.1 35.9,51.1C39.1,51.1 41.7,48.5 41.7,45.3C41.7,42.1 39.1,39.5 35.9,39.5ZM64.3,54.1C59.4,54.1 55.5,50.1 55.5,45.3C55.5,40.4 59.5,36.5 64.3,36.5C69.1,36.5 73.1,40.5 73.1,45.3C73.1,50.1 69.2,54.1 64.3,54.1ZM64.3,39.5C61.1,39.5 58.5,42.1 58.5,45.3C58.5,48.5 61.1,51.1 64.3,51.1C67.5,51.1 70.1,48.5 70.1,45.3C70.1,42.1 67.5,39.5 64.3,39.5ZM32.4,30.6C32.5,30.5 38.2,23.4 46.2,22.9C47,22.9 47.7,22.1 47.6,21.3C47.6,20.5 46.9,19.9 46,19.9C36.7,20.4 30.3,28.4 30,28.7C29.5,29.3 29.6,30.3 30.2,30.8C30.5,31 30.8,31.1 31.1,31.1C31.7,31.1 32.1,30.9 32.4,30.6Z" style="fill:rgb(131,56,236);fill-rule:nonzero;stroke:rgb(251,111,146);stroke-width:0.21px;"/>
            </g>
            <g transform="matrix(0.284621,0,0,0.209539,286.22,37.5674)">
                <g transform="matrix(14.8217,0,0,14.8217,-0.236518,1424.95)">
                    <path d="M39.481,25.987C38.929,25.987 38.481,26.435 38.481,26.987C38.481,27.539 38.929,27.987 39.481,27.987L42.481,27.987C43.033,27.987 43.481,27.539 43.481,26.987C43.481,26.435 43.033,25.987 42.481,25.987L39.481,25.987Z" style="fill:rgb(131,56,236);fill-rule:nonzero;stroke:rgb(131,56,236);stroke-width:0.03px;stroke-linejoin:round;stroke-miterlimit:2;"/>
                </g>
                <g transform="matrix(14.8217,0,0,14.8217,-0.274962,1424.95)">
                    <path d="M52.481,25.987L50.481,25.987C49.929,25.987 49.481,26.435 49.481,26.987C49.481,27.539 49.929,27.987 50.481,27.987L52.481,27.987C53.033,27.987 53.481,27.539 53.481,26.987C53.481,26.435 53.033,25.987 52.481,25.987Z" style="fill:rgb(131,56,236);fill-rule:nonzero;stroke:rgb(131,56,236);stroke-width:0.03px;stroke-linejoin:round;stroke-miterlimit:2;"/>
                </g>
                <g transform="matrix(14.8217,0,0,14.8217,-0.196221,1425.11)">
                    <path d="M46.573,7.896C36.046,-2.631 18.917,-2.631 8.389,7.896C-2.139,18.423 -2.138,35.552 8.389,46.08C13.653,51.344 20.567,53.976 27.481,53.976C34.395,53.976 41.309,51.344 46.573,46.08L47.28,45.373L28.895,26.987L47.28,8.603L46.573,7.896ZM26.067,26.987L44.438,45.358C34.644,54.407 19.314,54.174 9.804,44.665C5.082,39.943 2.482,33.665 2.482,26.987C2.482,20.309 5.082,14.032 9.803,9.31C14.677,4.436 21.079,1.999 27.481,1.999C33.572,1.999 39.663,4.205 44.438,8.617L26.067,26.987Z" style="fill:rgb(131,56,236);fill-rule:nonzero;stroke:rgb(131,56,236);stroke-width:0.03px;stroke-linejoin:round;stroke-miterlimit:2;"/>
                </g>
                <g transform="matrix(14.8217,0,0,14.8217,-0.446337,1424.91)">
                    <path d="M24.481,8.987C22.275,8.987 20.481,10.781 20.481,12.987C20.481,15.193 22.275,16.987 24.481,16.987C26.687,16.987 28.481,15.193 28.481,12.987C28.481,10.781 26.687,8.987 24.481,8.987ZM24.481,14.987C23.378,14.987 22.481,14.09 22.481,12.987C22.481,11.884 23.378,10.987 24.481,10.987C25.584,10.987 26.481,11.884 26.481,12.987C26.481,14.09 25.584,14.987 24.481,14.987Z" style="fill:rgb(131,56,236);fill-rule:nonzero;stroke:rgb(131,56,236);stroke-width:0.03px;stroke-linejoin:round;stroke-miterlimit:2;"/>
                </g>
            </g>
        </g>
    </g>
</svg>
